<?xml version="1.0" encoding="utf-8"?>
<!-- Generator: Adobe Illustrator 28.1.0, SVG Export Plug-In . SVG Version: 6.00 Build 0)  -->
<svg version="1.1" id="Capa_1" xmlns="http://www.w3.org/2000/svg" xmlns:xlink="http://www.w3.org/1999/xlink" x="0px" y="0px"
	 viewBox="0 0 48 48" style="enable-background:new 0 0 48 48;" xml:space="preserve">
<style type="text/css">
	.st0{display:none;}
	.st1{display:inline;fill:#006633;}
	.st2{fill:#006633;}
</style>
<g class="st0">
	<circle class="st1" cx="23.8" cy="24" r="5"/>
	<path class="st2" d="M39.2,4H26h-4.4H8.3h-3C4.5,4,3.9,4.6,3.9,5.6v10.9c0,0.8,0.6,1.4,1.4,1.4h1.4c1,0,1.6-0.6,1.6-1.6V10
		c0-0.8,0.6-1.6,1.6-1.6h10.1c0.8,0,1.6,0.6,1.6,1.6v3.4c0,0.8,0.6,1.6,1.6,1.6h1.4c0.8,0,1.6-0.6,1.6-1.6V10c0-0.8,0.6-1.6,1.6-1.6
		H38c0.8,0,1.6,0.6,1.6,1.6v6.4c0,0.8,0.6,1.6,1.6,1.6h1c0.8,0,1.6-0.6,1.6-1.6V5.6c0-1-0.8-1.6-1.6-1.6H39.2z"/>
	<path class="st2" d="M39.2,43.9H26h-4.4H8.3h-3c-0.8,0-1.6-0.6-1.6-1.6V31.3c0-0.8,0.6-1.6,1.6-1.6h1.4c1,0.2,1.6,0.8,1.6,1.8v6.4
		c0,0.8,0.6,1.6,1.6,1.6h10.1c0.8,0,1.6-0.6,1.6-1.6v-3.4c0-0.8,0.6-1.6,1.6-1.6h1.4c0.8,0,1.6,0.6,1.6,1.6v3.4
		c0,0.8,0.6,1.6,1.6,1.6H38c0.8,0,1.6-0.6,1.6-1.6v-6.4c0-0.8,0.6-1.6,1.6-1.6h1c0.8,0,1.6,0.6,1.6,1.6v10.9c0,0.8-0.6,1.6-1.6,1.6
		h-3V43.9z"/>
</g>
<path class="st2" d="M39.5,4H26.2h-4.5H8.5H4.7C4.3,4,4,4.3,4,4.7v12.6C4,17.7,4.3,18,4.7,18h3.1c0.4,0,0.7-0.3,0.7-0.7V9.2
	c0-0.4,0.3-0.7,0.7-0.7h11.9c0.4,0,0.7,0.3,0.7,0.7v5.1c0,0.4,0.3,0.7,0.7,0.7h3.1c0.4,0,0.7-0.3,0.7-0.7V9.2c0-0.4,0.3-0.7,0.7-0.7
	h11.9c0.4,0,0.7,0.3,0.7,0.7v8.1c0,0.4,0.3,0.7,0.7,0.7h3.1c0.4,0,0.7-0.3,0.7-0.7V4.7C44,4.3,43.7,4,43.3,4H39.5z"/>
<path class="st2" d="M39.5,44H26.2h-4.5H8.5H4.7C4.3,44,4,43.7,4,43.3V30.7C4,30.3,4.3,30,4.7,30h3.1c0.4,0,0.7,0.3,0.7,0.7v8.1
	c0,0.4,0.3,0.7,0.7,0.7h11.9c0.4,0,0.7-0.3,0.7-0.7v-5.1c0-0.4,0.3-0.7,0.7-0.7h3.1c0.4,0,0.7,0.3,0.7,0.7v5.1
	c0,0.4,0.3,0.7,0.7,0.7h11.9c0.4,0,0.7-0.3,0.7-0.7v-8.1c0-0.4,0.3-0.7,0.7-0.7h3.1c0.4,0,0.7,0.3,0.7,0.7v12.6
	c0,0.4-0.3,0.7-0.7,0.7H39.5z"/>
<circle class="st2" cx="24" cy="24" r="5"/>
</svg>
