<?xml version="1.0" encoding="utf-8"?>
<!-- Generator: Adobe Illustrator 28.1.0, SVG Export Plug-In . SVG Version: 6.00 Build 0)  -->
<svg version="1.1" id="Capa_1" xmlns="http://www.w3.org/2000/svg" xmlns:xlink="http://www.w3.org/1999/xlink" x="0px" y="0px"
	 viewBox="0 0 1024 1024" style="enable-background:new 0 0 1024 1024;" xml:space="preserve">
<style type="text/css">
	.st0{display:none;}
	.st1{display:inline;fill:#FFFFFF;}
	.st2{fill:#006633;}
	.st3{fill:none;stroke:#006633;stroke-width:50;stroke-miterlimit:10;}
</style>
<g class="st0">
	<circle class="st1" cx="512" cy="512" r="117.5"/>
	<path class="st1" d="M841,42H596.6H460.3H183H70.2C56.1,42,42,56.1,42,70.2v319.6c0,14.1,14.1,28.2,28.2,28.2h84.6
		c14.1,0,28.2-14.1,28.2-28.2V206.5c0-14.1,14.1-28.2,28.2-28.2h220.9c14.1,0,28.2,14.1,28.2,28.2v89.3c0,14.1,14.1,28.2,28.2,28.2
		h79.9c14.1,0,28.2-14.1,28.2-28.2v-89.3c0-14.1,14.1-28.2,28.2-28.2h188c14.1,0,28.2,14.1,28.2,28.2v183.3
		c0,14.1,14.1,28.2,28.2,28.2h84.6c14.1,0,28.2-14.1,28.2-28.2V70.2c0-14.1-14.1-28.2-28.2-28.2C953.8,42,841,42,841,42z"/>
	<path class="st1" d="M841,982H596.6H460.3H183H70.2C56.1,982,42,967.9,42,953.8V634.2c0-14.1,14.1-28.2,28.2-28.2h84.6
		c14.1,0,28.2,14.1,28.2,28.2v183.3c0,14.1,14.1,28.2,28.2,28.2h220.9c14.1,0,28.2-14.1,28.2-28.2v-89.3c0-14.1,14.1-28.2,28.2-28.2
		h79.9c14.1,0,28.2,14.1,28.2,28.2v89.3c0,14.1,14.1,28.2,28.2,28.2h188c14.1,0,28.2-14.1,28.2-28.2V634.2
		c0-14.1,14.1-28.2,28.2-28.2h84.6c14.1,0,28.2,14.1,28.2,28.2v319.6c0,14.1-14.1,28.2-28.2,28.2C953.8,982,841,982,841,982z"/>
</g>
<rect x="979" class="st2" width="45" height="1024"/>
<rect class="st2" width="45" height="1024"/>
<rect x="489.5" y="-444.5" transform="matrix(6.123234e-17 -1 1 6.123234e-17 489.5 534.5)" class="st2" width="45" height="934"/>
<rect x="489.5" y="534.5" transform="matrix(6.123234e-17 -1 1 6.123234e-17 -489.5 1513.5)" class="st2" width="45" height="934"/>
<rect y="212" class="st2" width="45" height="600"/>
<rect x="172.5" y="84.5" transform="matrix(6.123234e-17 -1 1 6.123234e-17 -39.5 429.5)" class="st2" width="45" height="300"/>
<rect x="300" y="212" transform="matrix(-1 -1.224647e-16 1.224647e-16 -1 645 1024)" class="st2" width="45" height="600"/>
<rect x="127.5" y="639.5" transform="matrix(-1.836970e-16 1 -1 -1.836970e-16 939.5 639.5)" class="st2" width="45" height="300"/>
<path class="st3" d="M1001.5,735.3c-123.3,0-223.3-100-223.3-223.3s100-223.3,223.3-223.3"/>
<path class="st2" d="M1001.5,435.9c-42,0-76.1,34.1-76.1,76.1s34.1,76.1,76.1,76.1"/>
</svg>
