<?xml version="1.0" encoding="utf-8"?>
<!-- Generator: Adobe Illustrator 28.1.0, SVG Export Plug-In . SVG Version: 6.00 Build 0)  -->
<svg version="1.1" id="Capa_1" xmlns="http://www.w3.org/2000/svg" xmlns:xlink="http://www.w3.org/1999/xlink" x="0px" y="0px"
	 viewBox="0 0 1024 1024" style="enable-background:new 0 0 1024 1024;" xml:space="preserve">
<style type="text/css">
	.st0{fill:#006633;}
	.st1{fill:#FFFFFF;}
</style>
<rect class="st0" width="1024" height="1024"/>
<g>
	<circle class="st1" cx="512" cy="512" r="117.5"/>
	<path class="st1" d="M841,42H596.6H460.3H183H70.2C56.1,42,42,56.1,42,70.2v319.6c0,14.1,14.1,28.2,28.2,28.2h84.6
		c14.1,0,28.2-14.1,28.2-28.2V206.5c0-14.1,14.1-28.2,28.2-28.2h220.9c14.1,0,28.2,14.1,28.2,28.2v89.3c0,14.1,14.1,28.2,28.2,28.2
		h79.9c14.1,0,28.2-14.1,28.2-28.2v-89.3c0-14.1,14.1-28.2,28.2-28.2h188c14.1,0,28.2,14.1,28.2,28.2v183.3
		c0,14.1,14.1,28.2,28.2,28.2h84.6c14.1,0,28.2-14.1,28.2-28.2V70.2c0-14.1-14.1-28.2-28.2-28.2C953.8,42,841,42,841,42z"/>
	<path class="st1" d="M841,982H596.6H460.3H183H70.2C56.1,982,42,967.9,42,953.8V634.2c0-14.1,14.1-28.2,28.2-28.2h84.6
		c14.1,0,28.2,14.1,28.2,28.2v183.3c0,14.1,14.1,28.2,28.2,28.2h220.9c14.1,0,28.2-14.1,28.2-28.2v-89.3c0-14.1,14.1-28.2,28.2-28.2
		h79.9c14.1,0,28.2,14.1,28.2,28.2v89.3c0,14.1,14.1,28.2,28.2,28.2h188c14.1,0,28.2-14.1,28.2-28.2V634.2
		c0-14.1,14.1-28.2,28.2-28.2h84.6c14.1,0,28.2,14.1,28.2,28.2v319.6c0,14.1-14.1,28.2-28.2,28.2C953.8,982,841,982,841,982z"/>
</g>
</svg>
