<?xml version="1.0" encoding="utf-8"?>
<!-- Generator: Adobe Illustrator 28.1.0, SVG Export Plug-In . SVG Version: 6.00 Build 0)  -->
<svg version="1.1" id="Capa_1" xmlns="http://www.w3.org/2000/svg" xmlns:xlink="http://www.w3.org/1999/xlink" x="0px" y="0px"
	 viewBox="0 0 1024 1024" style="enable-background:new 0 0 1024 1024;" xml:space="preserve">
<style type="text/css">
	.st0{display:none;}
	.st1{display:inline;fill:#FFFFFF;}
	.st2{fill:#006633;}
	.st3{fill:#FFFFFF;}
</style>
<g class="st0">
	<circle class="st1" cx="512" cy="512" r="117.5"/>
	<path class="st1" d="M841,42H596.6H460.3H183H70.2C56.1,42,42,56.1,42,70.2v319.6c0,14.1,14.1,28.2,28.2,28.2h84.6
		c14.1,0,28.2-14.1,28.2-28.2V206.5c0-14.1,14.1-28.2,28.2-28.2h220.9c14.1,0,28.2,14.1,28.2,28.2v89.3c0,14.1,14.1,28.2,28.2,28.2
		h79.9c14.1,0,28.2-14.1,28.2-28.2v-89.3c0-14.1,14.1-28.2,28.2-28.2h188c14.1,0,28.2,14.1,28.2,28.2v183.3
		c0,14.1,14.1,28.2,28.2,28.2h84.6c14.1,0,28.2-14.1,28.2-28.2V70.2c0-14.1-14.1-28.2-28.2-28.2C953.8,42,841,42,841,42z"/>
	<path class="st1" d="M841,982H596.6H460.3H183H70.2C56.1,982,42,967.9,42,953.8V634.2c0-14.1,14.1-28.2,28.2-28.2h84.6
		c14.1,0,28.2,14.1,28.2,28.2v183.3c0,14.1,14.1,28.2,28.2,28.2h220.9c14.1,0,28.2-14.1,28.2-28.2v-89.3c0-14.1,14.1-28.2,28.2-28.2
		h79.9c14.1,0,28.2,14.1,28.2,28.2v89.3c0,14.1,14.1,28.2,28.2,28.2h188c14.1,0,28.2-14.1,28.2-28.2V634.2
		c0-14.1,14.1-28.2,28.2-28.2h84.6c14.1,0,28.2,14.1,28.2,28.2v319.6c0,14.1-14.1,28.2-28.2,28.2C953.8,982,841,982,841,982z"/>
</g>
<rect class="st2" width="1028.1" height="1014.7"/>
<rect x="44" y="37.3" class="st3" width="940" height="940"/>
<rect x="44" y="329.6" class="st2" width="174.5" height="355.6"/>
<rect x="44" y="362.3" class="st3" width="133.9" height="290"/>
<rect x="809.5" y="329.6" class="st2" width="174.5" height="355.6"/>
<circle class="st2" cx="514" cy="507.3" r="145"/>
<rect x="848.9" y="362.3" class="st3" width="135.1" height="290"/>
<circle class="st3" cx="514" cy="507.3" r="112"/>
<rect x="491.6" y="37.3" class="st2" width="44.9" height="940"/>
</svg>
